<?xml version="1.0" encoding="UTF-8" standalone="no"?>
<!-- Created with Inkscape (http://www.inkscape.org/) -->

<svg
   width="21.697807mm"
   height="21.268986mm"
   viewBox="0 0 21.697807 21.268986"
   version="1.1"
   id="svg1"
   inkscape:version="1.3.2 (091e20e, 2023-11-25)"
   sodipodi:docname="moderation.svg"
   inkscape:export-filename="campaign.png"
   inkscape:export-xdpi="96"
   inkscape:export-ydpi="96"
   xmlns:inkscape="http://www.inkscape.org/namespaces/inkscape"
   xmlns:sodipodi="http://sodipodi.sourceforge.net/DTD/sodipodi-0.dtd"
   xmlns="http://www.w3.org/2000/svg"
   xmlns:svg="http://www.w3.org/2000/svg">
  <sodipodi:namedview
     id="namedview1"
     pagecolor="#ffffff"
     bordercolor="#666666"
     borderopacity="1.0"
     inkscape:showpageshadow="2"
     inkscape:pageopacity="0.0"
     inkscape:pagecheckerboard="0"
     inkscape:deskcolor="#d1d1d1"
     inkscape:document-units="mm"
     inkscape:zoom="5.8407025"
     inkscape:cx="24.483356"
     inkscape:cy="29.020482"
     inkscape:window-width="1440"
     inkscape:window-height="760"
     inkscape:window-x="0"
     inkscape:window-y="25"
     inkscape:window-maximized="1"
     inkscape:current-layer="g11421" />
  <defs
     id="defs1" />
  <g
     inkscape:label="Layer 1"
     inkscape:groupmode="layer"
     id="layer1"
     transform="translate(-141.55208,-133.87915)">
    <g
       id="g11421"
       transform="matrix(0.28395591,0,0,0.28395591,440.74727,448.87036)">
      <ellipse
         style="fill:#ff4401;stroke-width:2.00001;stroke-linecap:round;stroke-linejoin:round"
         id="ellipse3701"
         cx="-1015.4615"
         cy="-1071.845"
         rx="38.206295"
         ry="37.45121" />
      <path
         style="color:#000000;fill:#ffffff;stroke-width:1.00016;stroke-linecap:round;stroke-linejoin:round;stroke-dasharray:none"
         d="m -1043.8264,-1081.5183 c 6.9901,0.5513 36.3184,0.8355 36.3184,0.8355 0.2339,0.2604 0.3146,0.624 0.2129,0.9589 l 0.6539,22.99 c -0.121,0.3979 -0.4756,0.6794 -0.8906,0.707 -3.6338,0.2423 -12.342,0.2075 -20.4271,0.1054 -1.474,-0.019 -6.8489,12.3558 -6.9206,9.4173 -0.1052,-4.3128 0.02,-9.5203 -1.1662,-9.5414 -5.0851,-0.09 -8.7518,-0.1771 -8.7518,-0.1771 -0.4576,-0.2193 -0.6784,-0.7466 -0.5137,-1.2266 l 0.4594,-23.3971 c 0.1483,-0.4317 0.5703,-0.7082 1.0254,-0.6719 z m 1.0728,2.4349 -0.3447,21.0777 c 1.05,0.4588 28.7698,0.5936 34.6738,0.3743 l -0.4257,-20.6006 c -0.034,-0.036 -29.3421,-0.7366 -33.9034,-0.8514 z"
         id="path3698-8"
         sodipodi:nodetypes="cccccsssccccccccc" />
      <rect
         style="fill:#ff4401;fill-opacity:1;stroke:none;stroke-width:1.00016;stroke-linecap:round;stroke-miterlimit:1;stroke-dasharray:none"
         id="rect3"
         width="36.551308"
         height="22.36722"
         x="-1027.092"
         y="-1090.1243" />
      <path
         style="color:#000000;fill:#ffffff;fill-opacity:1;stroke-width:1.00016;stroke-linecap:round;stroke-linejoin:round;stroke-dasharray:none"
         d="m -989.07002,-1093.8796 c -6.9901,0.5513 -36.31838,0.8355 -36.31838,0.8355 -0.2339,0.2604 -0.3146,0.624 -0.2129,0.9589 l -0.6539,22.99 c 0.121,0.3979 0.4756,0.6794 0.8906,0.707 3.6338,0.2423 12.342,0.2075 20.4271,0.1054 1.474,-0.019 6.84882,12.3558 6.92052,9.4173 0.10524,-4.3128 -0.0199,-9.5203 1.16626,-9.5414 5.0851,-0.09 8.75173,-0.1771 8.75173,-0.1771 0.45764,-0.2193 0.67847,-0.7466 0.5137,-1.2266 l -0.45933,-23.3971 c -0.14837,-0.4317 -0.5703,-0.7082 -1.0254,-0.6719 z m -1.07287,2.4349 0.3447,21.0777 c -1.05,0.4588 -28.76971,0.5936 -34.67371,0.3743 l 0.4257,-20.6006 c 0.034,-0.036 29.34207,-0.7366 33.90331,-0.8514 z"
         id="path3698"
         sodipodi:nodetypes="cccccsssccccccccc" />
      <g
         id="g3"
         transform="translate(1.8635522,-1.8635522)">
        <path
           style="font-variation-settings:normal;vector-effect:none;fill:#ffffff;fill-opacity:1;stroke:none;stroke-width:0.931775px;stroke-linecap:butt;stroke-linejoin:miter;stroke-miterlimit:4;stroke-dasharray:none;stroke-dashoffset:0;stroke-opacity:1;-inkscape-stroke:none;stop-color:#000000"
           d="m -1007.5181,-1074.6286 c -0.099,-4.4284 0.2196,-8.6333 0.1481,-13.0073 -1.6902,-0.3668 -3.2803,-0.065 -4.7064,0.4021 0.76,3.7433 1.6684,8.6875 2.683,12.5371 0.7755,0.5767 0.9197,0.6633 1.8541,0.178 z"
           id="path2"
           sodipodi:nodetypes="cccccc" />
        <path
           style="font-variation-settings:normal;vector-effect:none;fill:#ffffff;fill-opacity:1;stroke:none;stroke-width:0.931775px;stroke-linecap:butt;stroke-linejoin:miter;stroke-miterlimit:4;stroke-dasharray:none;stroke-dashoffset:0;stroke-opacity:1;-inkscape-stroke:none;stop-color:#000000"
           d="m -1009.2112,-1072.7612 c -1.5269,-0.2284 -1.1516,2.5315 0.1228,2.8791 1.3723,0.8932 2.8416,-0.9861 2.0473,-2.4386 -0.4403,-0.6525 -1.4313,-0.6418 -2.1701,-0.4405 z"
           id="path3"
           sodipodi:nodetypes="cccc" />
      </g>
    </g>
  </g>
</svg>
